<svg width="525" height="364" viewBox="0 0 525 364" fill="none" xmlns="http://www.w3.org/2000/svg">
<path d="M283.526 362.132C274.815 363.669 266 364.179 257.206 363.656C236.001 362.373 215.147 354.987 197.325 341.1C189.424 334.942 181.886 327.377 177.796 317.215C172.245 303.414 174.186 285.943 182.114 273.923C185.005 269.587 188.562 265.953 192.592 263.216C193.19 262.812 193.8 262.423 194.417 262.05C201.133 258.005 208.677 256.351 216.154 257.284C228.866 258.948 240.598 268.247 247.376 281.239C253.414 292.824 255.517 306.493 256.758 320.193C256.991 322.774 257.193 325.363 257.387 327.937C256.307 335.393 254.608 342.701 252.317 349.754C252.2 350.098 252.105 350.451 252.031 350.811C253.329 354.186 254.565 357.591 255.738 361.028C256.84 361.744 258.075 362.119 259.329 362.116H283.474L283.526 362.132Z" fill="#D4FC79" fill-opacity="0.65"/>
<path d="M255.238 362.793C255.078 362.878 254.905 362.925 254.73 362.93C254.555 362.935 254.381 362.897 254.217 362.821C254.054 362.744 253.906 362.629 253.78 362.483C253.654 362.337 253.554 362.162 253.485 361.969C253.381 361.673 253.284 361.378 253.18 361.082C252.245 358.361 251.265 355.666 250.239 352.996C237.106 318.548 217.517 288.19 192.995 264.281C192.854 264.163 192.743 264.002 192.672 263.815C192.601 263.627 192.574 263.421 192.592 263.216C192.628 262.982 192.707 262.76 192.825 262.568C192.942 262.375 193.094 262.217 193.269 262.105C193.445 261.993 193.639 261.93 193.838 261.92C194.037 261.91 194.234 261.955 194.417 262.05C194.515 262.103 194.606 262.171 194.69 262.252C205.181 272.486 214.806 283.931 223.425 296.424C232.046 308.905 239.636 322.356 246.09 336.59C247.85 340.478 249.52 344.42 251.102 348.417C251.414 349.21 251.726 350.01 252.031 350.811C253.329 354.186 254.565 357.591 255.738 361.028C255.758 361.082 255.777 361.144 255.797 361.199C255.856 361.346 255.889 361.507 255.893 361.67C255.897 361.834 255.871 361.996 255.819 362.147C255.766 362.298 255.687 362.434 255.586 362.545C255.486 362.656 255.368 362.741 255.238 362.793Z" fill="#96E6A1"/>
<path d="M169.129 260.246C183.113 260.246 194.449 246.67 194.449 229.923C194.449 213.176 183.113 199.6 169.129 199.6C155.144 199.6 143.808 213.176 143.808 229.923C143.808 246.67 155.144 260.246 169.129 260.246Z" fill="#65F377"/>
<path d="M166.619 241.49C166.049 241.492 165.494 241.271 165.039 240.862L165.01 240.836L159.06 235.38C158.784 235.128 158.553 234.812 158.379 234.452C158.205 234.092 158.092 233.695 158.046 233.283C158 232.87 158.023 232.451 158.113 232.05C158.202 231.648 158.357 231.271 158.568 230.941C158.779 230.611 159.043 230.334 159.344 230.126C159.644 229.917 159.976 229.782 160.32 229.728C160.665 229.673 161.015 229.7 161.35 229.808C161.686 229.915 162 230.101 162.276 230.354L166.13 233.894L175.238 219.668C175.449 219.338 175.713 219.061 176.014 218.853C176.314 218.645 176.646 218.51 176.99 218.456C177.334 218.401 177.684 218.429 178.019 218.536C178.355 218.644 178.669 218.829 178.945 219.082L178.888 219.174L178.946 219.083C179.502 219.595 179.866 220.35 179.957 221.182C180.049 222.014 179.861 222.856 179.436 223.522L168.722 240.255C168.474 240.64 168.156 240.952 167.791 241.167C167.426 241.381 167.025 241.492 166.619 241.49V241.49Z" fill="white"/>
<path d="M550.225 364H0.770812C0.566175 363.999 0.370127 363.902 0.225636 363.728C0.0811444 363.554 0 363.319 0 363.074C0 362.829 0.0811444 362.594 0.225636 362.421C0.370127 362.247 0.566175 362.149 0.770812 362.148H550.225C550.429 362.149 550.625 362.247 550.77 362.421C550.914 362.594 550.995 362.829 550.995 363.074C550.995 363.319 550.914 363.554 550.77 363.728C550.625 363.902 550.429 363.999 550.225 364V364Z" fill="black"/>
<path d="M107.478 104.699C117.855 104.699 126.267 94.6253 126.267 82.1981C126.267 69.771 117.855 59.6968 107.478 59.6968C97.1009 59.6968 88.6887 69.771 88.6887 82.1981C88.6887 94.6253 97.1009 104.699 107.478 104.699Z" fill="#2F2E41"/>
<path d="M92.812 70.066C95.8482 66.4299 96.4636 61.2715 94.1864 58.5444C91.9092 55.8173 87.6018 56.5542 84.5655 60.1903C81.5292 63.8265 80.9139 68.9849 83.1911 71.712C85.4683 74.4391 89.7757 73.7022 92.812 70.066Z" fill="#2F2E41"/>
<path d="M127.061 62.9204C128.326 59.3737 126.151 54.8611 122.202 52.841C118.253 50.821 114.027 52.0586 112.762 55.6053C111.496 59.152 113.672 63.6646 117.621 65.6846C121.57 67.7047 125.796 66.4671 127.061 62.9204Z" fill="#2F2E41"/>
<path d="M159.798 212.108C160.273 211.027 160.544 209.835 160.592 208.615C160.641 207.395 160.465 206.178 160.078 205.048C159.691 203.918 159.102 202.904 158.352 202.076C157.602 201.249 156.71 200.628 155.738 200.258L128.589 131.48L116.171 141.909L146.762 206.237C146.351 208.233 146.566 210.34 147.366 212.159C148.166 213.978 149.496 215.382 151.102 216.106C152.709 216.83 154.482 216.822 156.085 216.086C157.687 215.349 159.008 213.933 159.798 212.108V212.108Z" fill="#FFB8B8"/>
<path d="M134.815 142.955L120.396 150.676C119.986 150.896 119.541 151.007 119.092 151.002C118.642 150.997 118.199 150.876 117.792 150.648C117.385 150.42 117.024 150.089 116.734 149.678C116.443 149.268 116.23 148.787 116.109 148.269L111.857 130.111C110.93 127.591 110.876 124.734 111.705 122.166C112.535 119.598 114.182 117.529 116.283 116.412C118.385 115.295 120.771 115.222 122.917 116.209C125.064 117.195 126.796 119.161 127.735 121.675L136.176 137.523C136.417 137.976 136.574 138.487 136.636 139.02C136.698 139.553 136.663 140.096 136.534 140.612C136.405 141.127 136.185 141.603 135.888 142.008C135.591 142.412 135.225 142.735 134.815 142.955V142.955Z" fill="#CCCCCC"/>
<path d="M68.2236 218.926C69.2168 218.65 70.1474 218.116 70.9497 217.363C71.7521 216.609 72.4067 215.654 72.8675 214.565C73.3284 213.476 73.5841 212.279 73.6168 211.058C73.6496 209.838 73.4584 208.624 73.0569 207.501L98.7686 137.935L84.0602 133.499L63.4115 203.275C61.8816 204.208 60.6907 205.78 60.0642 207.694C59.4378 209.608 59.4194 211.731 60.0125 213.66C60.6057 215.59 61.7691 217.191 63.2825 218.162C64.7959 219.132 66.5539 219.404 68.2236 218.926H68.2236Z" fill="#FFB8B8"/>
<path d="M61.2146 345.021L68.6939 348.282L82.7573 315.286L71.7181 310.473L61.2146 345.021Z" fill="#FFB8B8"/>
<path d="M80.5895 362.889L57.0832 352.639L60.3899 341.763L74.8143 348.052C77.223 349.103 79.1846 351.256 80.2677 354.038C81.3508 356.821 81.4665 360.004 80.5895 362.889V362.889V362.889Z" fill="#2F2E41"/>
<path d="M78.9058 326.033C78.4469 326.033 77.9936 325.911 77.5788 325.676L68.9832 320.8C68.2786 320.404 67.7232 319.706 67.4266 318.844C67.13 317.982 67.1136 317.019 67.3806 316.143L91.6389 235.695C91.8398 235.028 92.1944 234.444 92.6615 234.009C93.1286 233.575 93.689 233.308 94.2777 233.239C94.8664 233.171 95.4593 233.304 95.9875 233.622C96.5157 233.941 96.9576 234.433 97.2619 235.04L110.093 260.649C110.378 261.22 110.532 261.871 110.538 262.537C110.543 263.202 110.402 263.857 110.126 264.434L81.6327 324.149C81.3566 324.723 80.9591 325.199 80.4803 325.529C80.0016 325.86 79.4585 326.034 78.9058 326.033V326.033Z" fill="#2F2E41"/>
<path d="M108.074 106.666C116.881 106.666 124.02 98.1165 124.02 87.5697C124.02 77.0229 116.881 68.4731 108.074 68.4731C99.267 68.4731 92.1276 77.0229 92.1276 87.5697C92.1276 98.1165 99.267 106.666 108.074 106.666Z" fill="#FFB8B8"/>
<path d="M130.633 174.395L102.399 165.096L87.3819 129.129C86.6605 127.401 86.3199 125.481 86.3924 123.551C86.4649 121.621 86.9481 119.746 87.7962 118.102C88.6443 116.459 89.8291 115.103 91.238 114.162C92.647 113.221 94.2333 112.728 95.8465 112.728H118.31C120.642 112.726 122.892 113.756 124.627 115.621C130.653 122.086 143.313 140.723 130.755 174.07L130.633 174.395Z" fill="#65F377"/>
<path d="M95.288 150.377L80.9828 142.358C80.5758 142.129 80.2146 141.799 79.9239 141.388C79.6332 140.978 79.4197 140.497 79.2981 139.979C79.1764 139.461 79.1495 138.918 79.219 138.386C79.2885 137.854 79.4529 137.347 79.701 136.898L88.3947 121.175C89.3814 118.688 91.1513 116.771 93.3164 115.844C95.4815 114.917 97.8651 115.056 99.9446 116.231C102.024 117.406 103.63 119.52 104.41 122.11C105.19 124.7 105.08 127.555 104.105 130.049L99.6098 148.058C99.4809 148.574 99.2608 149.05 98.9644 149.455C98.668 149.859 98.3023 150.183 97.8921 150.403C97.482 150.623 97.0371 150.734 96.5877 150.73C96.1383 150.725 95.695 150.605 95.288 150.377V150.377Z" fill="#65F377"/>
<path d="M112.595 354.037H120.555L124.342 317.27L112.593 317.271L112.595 354.037Z" fill="#FFB8B8"/>
<path d="M135.906 362.888L110.89 362.889L110.889 351.314L126.24 351.313C128.803 351.313 131.262 352.532 133.075 354.703C134.887 356.874 135.906 359.818 135.906 362.888V362.888Z" fill="#2F2E41"/>
<path d="M115.601 340.027C114.885 340.028 114.191 339.734 113.635 339.193C113.08 338.653 112.697 337.9 112.551 337.061C110.263 324.151 98.38 258.025 89.1056 223.964C79.6693 189.31 95.7398 173.525 99.0571 170.713C99.4104 170.414 99.6911 170.008 99.8705 169.537L102.281 163.188C102.531 162.532 102.933 161.977 103.439 161.587C103.945 161.197 104.534 160.99 105.135 160.99H105.155C123.223 161.119 129.297 167.94 131.069 170.867C131.331 171.303 131.51 171.801 131.594 172.328C131.679 172.856 131.667 173.398 131.559 173.919L120.127 230.402C120.056 230.752 120.04 231.115 120.08 231.472L131.453 334.027C131.508 334.52 131.48 335.021 131.371 335.501C131.263 335.981 131.075 336.43 130.82 336.822C130.565 337.214 130.247 337.542 129.885 337.785C129.523 338.029 129.124 338.184 128.712 338.241L115.968 340.001C115.846 340.018 115.723 340.027 115.601 340.027V340.027Z" fill="#2F2E41"/>
<path d="M91.3181 75.558C94.962 78.5657 99.2871 80.1664 103.713 80.1452C102.134 81.4561 100.337 82.3415 98.4449 82.7406C104.329 84.2521 110.41 84.2931 116.308 82.8608C117.619 82.609 118.884 82.0887 120.048 81.3227C120.628 80.9349 121.133 80.4053 121.53 79.7684C121.928 79.1315 122.209 78.4015 122.356 77.6258C122.748 74.9445 121.003 72.5085 119.19 70.8668C116.414 68.3915 113.214 66.6861 109.82 65.874C106.426 65.0618 102.924 65.1632 99.5671 66.1708C97.3751 66.8494 95.1792 67.9959 93.7554 70.104C92.3316 72.2122 91.9099 75.4623 93.2664 77.6331L91.3181 75.558Z" fill="#2F2E41"/>
<path d="M384.029 158.391C388.691 158.391 392.47 153.866 392.47 148.283C392.47 142.701 388.691 138.176 384.029 138.176C379.368 138.176 375.589 142.701 375.589 148.283C375.589 153.866 379.368 158.391 384.029 158.391Z" fill="#65F377"/>
<path d="M383.193 152.139C383.003 152.14 382.818 152.066 382.666 151.93L382.657 151.921L380.673 150.103C380.581 150.018 380.504 149.913 380.445 149.793C380.387 149.673 380.349 149.541 380.334 149.403C380.319 149.266 380.326 149.126 380.356 148.992C380.386 148.857 380.437 148.732 380.508 148.621C380.578 148.511 380.666 148.419 380.767 148.349C380.867 148.28 380.978 148.235 381.093 148.217C381.208 148.199 381.325 148.208 381.436 148.244C381.548 148.28 381.653 148.343 381.745 148.427L383.03 149.607L386.066 144.865C386.136 144.755 386.224 144.663 386.324 144.594C386.425 144.524 386.535 144.479 386.65 144.461C386.765 144.443 386.881 144.452 386.993 144.488C387.105 144.524 387.21 144.586 387.301 144.67L387.283 144.701L387.302 144.67C387.487 144.841 387.608 145.092 387.639 145.37C387.67 145.647 387.607 145.928 387.465 146.15L383.894 151.727C383.811 151.856 383.705 151.96 383.583 152.031C383.462 152.103 383.328 152.14 383.193 152.139V152.139Z" fill="white"/>
<path d="M384.029 187.937C388.691 187.937 392.47 183.411 392.47 177.829C392.47 172.247 388.691 167.721 384.029 167.721C379.368 167.721 375.589 172.247 375.589 177.829C375.589 183.411 379.368 187.937 384.029 187.937Z" fill="#65F377"/>
<path d="M383.193 181.685C383.003 181.685 382.818 181.612 382.666 181.475L382.657 181.467L380.673 179.648C380.581 179.564 380.504 179.459 380.445 179.339C380.387 179.219 380.349 179.086 380.334 178.949C380.319 178.811 380.326 178.671 380.356 178.537C380.386 178.403 380.437 178.277 380.508 178.167C380.578 178.057 380.666 177.965 380.767 177.895C380.867 177.826 380.978 177.781 381.093 177.763C381.208 177.745 381.325 177.754 381.436 177.79C381.548 177.826 381.653 177.888 381.745 177.973L383.03 179.153L386.066 174.411C386.136 174.301 386.224 174.209 386.324 174.139C386.425 174.07 386.535 174.025 386.65 174.007C386.765 173.989 386.881 173.998 386.993 174.034C387.105 174.069 387.21 174.131 387.301 174.216L387.283 174.246L387.302 174.216C387.487 174.387 387.608 174.638 387.639 174.915C387.67 175.193 387.607 175.473 387.465 175.696L383.894 181.273C383.811 181.402 383.705 181.506 383.583 181.577C383.462 181.648 383.328 181.685 383.193 181.685V181.685Z" fill="white"/>
<path d="M388.574 222.148C393.235 222.148 397.014 217.622 397.014 212.04C397.014 206.458 393.235 201.932 388.574 201.932C383.913 201.932 380.134 206.458 380.134 212.04C380.134 217.622 383.913 222.148 388.574 222.148Z" fill="#65F377"/>
<path d="M387.738 215.896C387.548 215.896 387.363 215.823 387.211 215.686L387.201 215.678L385.218 213.859C385.126 213.775 385.048 213.67 384.99 213.55C384.932 213.43 384.894 213.297 384.879 213.16C384.863 213.022 384.871 212.882 384.901 212.748C384.93 212.614 384.982 212.488 385.053 212.378C385.123 212.268 385.211 212.175 385.311 212.106C385.412 212.036 385.523 211.991 385.638 211.973C385.752 211.955 385.869 211.965 385.981 212.001C386.093 212.037 386.198 212.099 386.29 212.184L387.575 213.363L390.611 208.622C390.681 208.512 390.769 208.419 390.869 208.35C390.969 208.281 391.08 208.236 391.195 208.218C391.309 208.199 391.426 208.209 391.538 208.244C391.65 208.28 391.754 208.342 391.846 208.426L391.827 208.457L391.847 208.427C392.032 208.597 392.153 208.849 392.184 209.126C392.214 209.404 392.152 209.684 392.01 209.906L388.439 215.484C388.356 215.612 388.25 215.716 388.128 215.788C388.007 215.859 387.873 215.896 387.738 215.896V215.896Z" fill="white"/>
<path d="M469.961 296.431C469.874 296.431 469.819 296.429 469.799 296.427L459.321 296.429V294.578H469.837C470.081 294.589 475.048 294.757 479.626 288.106C486.446 278.193 492.048 253.654 479.997 193.043C463.794 111.543 477.308 39.5426 483.871 12.3697C484.194 11.0253 484.252 9.60932 484.04 8.23359C483.828 6.85785 483.351 5.56008 482.648 4.44278C481.945 3.32549 481.035 2.41929 479.989 1.7958C478.943 1.17231 477.79 0.848615 476.622 0.850276H320.132C318.942 0.852186 317.769 1.19001 316.709 1.83635C315.649 2.48269 314.73 3.41932 314.029 4.57021C311.249 9.14979 307.434 17.9475 305.047 33.8554L303.526 33.5284C305.965 17.2749 309.904 8.21832 312.779 3.48245C313.624 2.09568 314.73 0.967062 316.008 0.18823C317.285 -0.590602 318.698 -0.997697 320.132 -0.999995H476.622C478.03 -1.00162 479.419 -0.611178 480.679 0.140477C481.939 0.892133 483.036 1.98441 483.883 3.33101C484.73 4.67761 485.304 6.24164 485.559 7.89953C485.815 9.55743 485.745 11.2638 485.355 12.8837C478.826 39.9157 465.382 111.543 481.501 192.615C493.72 254.078 487.846 279.149 480.766 289.357C476.096 296.09 470.951 296.431 469.961 296.431Z" fill="#B9FD20"/>
<path d="M441.765 330.198C441.677 330.198 441.622 330.196 441.603 330.194L431.124 330.196V328.345H441.641C441.886 328.355 446.852 328.524 451.429 321.873C458.25 311.96 463.851 287.421 451.801 226.81C435.598 145.31 449.112 73.3098 455.674 46.1369C455.998 44.7925 456.055 43.3765 455.843 42.0008C455.631 40.6251 455.155 39.3273 454.452 38.21C453.748 37.0927 452.838 36.1865 451.792 35.563C450.747 34.9395 449.594 34.6158 448.426 34.6175H291.935C290.745 34.6194 289.573 34.9572 288.512 35.6036C287.452 36.2499 286.534 37.1865 285.833 38.3374C283.053 42.917 279.238 51.7148 276.85 67.6226L275.33 67.2956C277.769 51.0421 281.708 41.9855 284.583 37.2497C285.428 35.8629 286.534 34.7343 287.811 33.9554C289.089 33.1766 290.502 32.7695 291.935 32.7672H448.426C449.834 32.7656 451.222 33.156 452.482 33.9077C453.743 34.6594 454.839 35.7516 455.686 37.0982C456.533 38.4448 457.107 40.0089 457.363 41.6668C457.618 43.3247 457.548 45.031 457.159 46.6509C450.63 73.683 437.186 145.31 453.304 226.382C465.524 287.845 459.649 312.916 452.57 323.124C447.9 329.857 442.755 330.198 441.765 330.198Z" fill="#65F377" fill-opacity="0.91"/>
<path d="M425.107 260.153C408.986 179.081 422.432 107.448 428.964 80.4217C429.353 78.8017 429.422 77.0956 429.166 75.438C428.91 73.7805 428.336 72.2168 427.489 70.8702C426.643 69.5237 425.546 68.4312 424.287 67.6789C423.027 66.9266 421.639 66.5351 420.231 66.5352H263.737C262.304 66.5369 260.892 66.9433 259.615 67.7215C258.338 68.4997 257.232 69.6276 256.387 71.0137C250.07 81.4169 236.962 115.915 251.603 211.371C259.432 262.439 259.316 297.256 256.758 320.193C255.322 333.107 253.109 342.251 251.102 348.417L250.888 349.07C250.466 350.317 250.245 351.65 250.239 352.996C250.224 354.516 250.479 356.023 250.986 357.417C251.493 358.811 252.241 360.06 253.18 361.082C253.793 361.77 254.486 362.346 255.238 362.793C255.863 363.174 256.523 363.464 257.206 363.656C257.9 363.859 258.613 363.961 259.329 363.959H413.408C413.427 363.959 413.479 363.967 413.57 363.967C414.557 363.967 419.706 363.625 424.374 356.891C431.45 346.683 437.326 321.615 425.107 260.153ZM423.231 355.64C418.654 362.295 413.687 362.124 413.447 362.116H259.329C258.095 362.116 256.88 361.754 255.79 361.061C254.7 360.368 253.768 359.367 253.076 358.143C252.467 357.086 252.059 355.882 251.878 354.615C251.698 353.349 251.75 352.051 252.031 350.811C252.104 350.451 252.2 350.098 252.317 349.754C254.608 342.701 256.307 335.393 257.387 327.937C261.049 304.028 261.731 267.135 253.122 211.037C238.592 116.289 251.44 82.3111 257.634 72.1022C258.337 70.953 259.255 70.0178 260.315 69.3722C261.375 68.7266 262.548 68.3887 263.737 68.3857H420.231C421.399 68.3847 422.551 68.7088 423.596 69.3322C424.641 69.9557 425.551 70.8615 426.253 71.9782C426.956 73.0949 427.432 74.3919 427.645 75.7668C427.857 77.1417 427.8 78.5569 427.477 79.9007C420.913 107.075 407.402 179.081 423.607 260.58C435.658 321.188 430.055 345.726 423.231 355.64Z" fill="#3F3D56"/>
<path d="M350.762 154.815H270.134C268.495 154.815 266.923 154.035 265.764 152.647C264.605 151.259 263.954 149.377 263.954 147.414C263.954 145.451 264.605 143.568 265.764 142.181C266.923 140.793 268.495 140.013 270.134 140.013H350.762C352.401 140.013 353.973 140.793 355.132 142.181C356.291 143.568 356.942 145.451 356.942 147.414C356.942 149.377 356.291 151.259 355.132 152.647C353.973 154.035 352.401 154.815 350.762 154.815V154.815Z" fill="white"/>
<path d="M350.762 186.693H270.134C268.495 186.693 266.923 185.913 265.764 184.525C264.605 183.137 263.954 181.255 263.954 179.292C263.954 177.329 264.605 175.447 265.764 174.059C266.923 172.671 268.495 171.891 270.134 171.891H350.762C352.401 171.891 353.973 172.671 355.132 174.059C356.291 175.447 356.942 177.329 356.942 179.292C356.942 181.255 356.291 183.137 355.132 184.525C353.973 185.913 352.401 186.693 350.762 186.693V186.693Z" fill="white"/>
<path d="M357.254 219.349H276.627C274.988 219.349 273.416 218.569 272.257 217.181C271.098 215.793 270.447 213.911 270.447 211.948C270.447 209.985 271.098 208.102 272.257 206.714C273.416 205.327 274.988 204.547 276.627 204.547H357.254C358.893 204.547 360.465 205.327 361.624 206.714C362.783 208.102 363.434 209.985 363.434 211.948C363.434 213.911 362.783 215.793 361.624 217.181C360.465 218.569 358.893 219.349 357.254 219.349V219.349Z" fill="white"/>
<path d="M361.799 253.56H281.171C279.532 253.56 277.96 252.78 276.801 251.392C275.642 250.004 274.991 248.121 274.991 246.159C274.991 244.196 275.642 242.313 276.801 240.925C277.96 239.537 279.532 238.758 281.171 238.758H361.799C363.438 238.758 365.01 239.537 366.169 240.925C367.328 242.313 367.979 244.196 367.979 246.159C367.979 248.121 367.328 250.004 366.169 251.392C365.01 252.78 363.438 253.56 361.799 253.56Z" fill="white"/>
<path d="M361.833 97.3487H303.895C303.083 97.3497 302.279 97.159 301.528 96.7875C300.777 96.416 300.095 95.871 299.521 95.1836C298.946 94.4963 298.491 93.6801 298.18 92.7817C297.869 91.8832 297.709 90.9202 297.709 89.9476C297.709 88.9751 297.869 88.0121 298.18 87.1136C298.491 86.2152 298.946 85.399 299.521 84.7116C300.095 84.0243 300.777 83.4793 301.528 83.1078C302.279 82.7363 303.083 82.5456 303.895 82.5466H361.833C363.472 82.5466 365.044 83.3264 366.203 84.7143C367.362 86.1023 368.013 87.9848 368.013 89.9476C368.013 91.9105 367.362 93.793 366.203 95.181C365.044 96.5689 363.472 97.3487 361.833 97.3487Z" fill="#65F377"/>
<path d="M393.768 256.266C398.429 256.266 402.208 251.741 402.208 246.159C402.208 240.576 398.429 236.051 393.768 236.051C389.107 236.051 385.328 240.576 385.328 246.159C385.328 251.741 389.107 256.266 393.768 256.266Z" fill="white"/>
<path d="M365.694 286.993H285.067C283.428 286.993 281.856 286.213 280.697 284.825C279.538 283.437 278.887 281.555 278.887 279.592C278.887 277.629 279.538 275.746 280.697 274.359C281.856 272.971 283.428 272.191 285.067 272.191H365.694C367.333 272.191 368.905 272.971 370.064 274.359C371.223 275.746 371.874 277.629 371.874 279.592C371.874 281.555 371.223 283.437 370.064 284.825C368.905 286.213 367.333 286.993 365.694 286.993Z" fill="white"/>
<path d="M397.664 289.7C402.325 289.7 406.104 285.174 406.104 279.592C406.104 274.009 402.325 269.484 397.664 269.484C393.002 269.484 389.223 274.009 389.223 279.592C389.223 285.174 393.002 289.7 397.664 289.7Z" fill="white"/>
</svg>
